# xmcd
#
# Track frame offsets: 
#        150
#        18572
#        33201
#        45359
#        63272
#        81287
#        101105
#        114545
#        130823
#        149893
#        166794
#        190577
#        210360
#
# Disc length: 3046 seconds
#
# Revision: 1
# Processed by: cddbd v1.5.2PL0 Copyright (c) Steve Scherf et al.
# Submitted via: ExactAudioCopyFreeDBPlugin 1.0
#
DISCID=ab0be40d
DTITLE=Various Artist - Saules smugis - Vasaros hitai 2000
DYEAR=2000
DGENRE=Pop
TTITLE0=Naktinės Personos - Naktines personos \\ Eime kartu
TTITLE1=Biplan - Biplan \\ Vitaminai
TTITLE2=Deivis - Deivis \\ Tu toli
TTITLE3=Andrius Mamontovas - Andrius Mamontovas \\ Nidos daina
TTITLE4=Pikaso - Pikaso \\ Noriu buti laisvas
TTITLE5=Elektra - Elektra \\ Ar tu (leta versija)
TTITLE6=B'avarija - B'avarija \\ Duok man
TTITLE7=Exem - Exem \\ Manyje uzdek zvaigzdes
TTITLE8=Lemon Joy - Lemon Joy \\ Hey duok man zodi
TTITLE9=Omega - Omega \\ Ten rasi (tris naktis)
TTITLE10=Skamp - Skamp \\ (B.U.T.) Ful (remix)
TTITLE11=Sel - Sel \\ Jeigu rukai
TTITLE12=Uogos - Uogos \\ Tas liudesys
EXTD=
EXTT0=
EXTT1=
EXTT2=
EXTT3=
EXTT4=
EXTT5=
EXTT6=
EXTT7=
EXTT8=
EXTT9=
EXTT10=
EXTT11=
EXTT12=
PLAYORDER=
